# xmcd
#
# Track frame offsets:
#	150
#	11437
#	23117
#	36252
#	51050
#	64255
#	75372
#	84100
#	102232
#	113730
#	125560
#	138872
#	151292
#	160762
#	177547
#	191342
#	204457
#	216220
#	231697
#	241925
#	258007
#
# Disc length: 3627
#
# Revision: 2
# Processed by: cddbd v1.5.1PL0 Copyright (c) Steve Scherf et al.
# Submitted via: dBpowerAMP V4.0
# Normalized: r0:TDELIM( - ),TSWAP
#
DISCID=0e0e2915
DTITLE=Various Artist - Country Stars Country Hits
DYEAR=1900
DGENRE=Country
TTITLE0=Conway Twitty - Hello Darlin'
TTITLE1=Patsy Cline - Walkin' After Midnight
TTITLE2=Merle Haggard - Kentucky Gambler
TTITLE3=Jerry Wallace - Do You Know What It's Like To Be Lonesome
TTITLE4=Donna Fargo - Daddy
TTITLE5=Gene Vincent - Am I That Easy To Forget
TTITLE6=Roger Miller - England Swings
TTITLE7=T. Graham Brown - Don't Go To Strangers
TTITLE8=The Kendalls - Heaven's Just A Sin Away
TTITLE9=Troy Shondell - This Time
TTITLE10=Conway Twitty - After All The Good Is Gone
TTITLE11=George Morgan - In The Misty Moonlight
TTITLE12=Boots Randolph - Yakety Sax
TTITLE13=Lee Greenwood - Ring On Her Finger, Time On Her Hands
TTITLE14=Mel McDaniel - Baby's Got Her Blue Jeans On
TTITLE15=Patsy Cline - Life's Railway To Heaven
TTITLE16=Jerry Wallace - If You Leave Me Tonight, I'll Cry
TTITLE17=Eddy Raven - You Should Have Been Gone By Now
TTITLE18=Roger Miller - Engine, Engine #9
TTITLE19=Merle Haggard - It's Not Love, But It's Not Bad
TTITLE20=Lee Greenwood - I.O.U.
EXTD=
EXTT0=
EXTT1=
EXTT2=
EXTT3=
EXTT4=
EXTT5=
EXTT6=
EXTT7=
EXTT8=
EXTT9=
EXTT10=
EXTT11=
EXTT12=
EXTT13=
EXTT14=
EXTT15=
EXTT16=
EXTT17=
EXTT18=
EXTT19=
EXTT20=
PLAYORDER=
